<svg width="441" height="144" viewBox="0 0 441 144" fill="none" xmlns="http://www.w3.org/2000/svg">
<path d="M2.38776 18.5308L89.5812 89.494L176.775 111.036L263.968 116.58L351.161 133.688L438.355 16.4716V143.35H351.161H263.968H176.775H89.5812H2.38776V18.5308Z" fill="url(#paint0_linear)" fill-opacity="0.6"/>
<path d="M2.38774 21.5008C3.59566 21.5008 4.57487 20.1711 4.57487 18.5308C4.57487 16.8905 3.59566 15.5608 2.38774 15.5608C1.17983 15.5608 0.200623 16.8905 0.200623 18.5308C0.200623 20.1711 1.17983 21.5008 2.38774 21.5008Z" fill="url(#paint1_linear)" fill-opacity="0.6"/>
<path d="M89.5812 92.464C90.7891 92.464 91.7683 91.1343 91.7683 89.494C91.7683 87.8537 90.7891 86.524 89.5812 86.524C88.3732 86.524 87.394 87.8537 87.394 89.494C87.394 91.1343 88.3732 92.464 89.5812 92.464Z" fill="url(#paint2_linear)" fill-opacity="0.6"/>
<path d="M176.775 114.006C177.983 114.006 178.962 112.677 178.962 111.036C178.962 109.396 177.983 108.066 176.775 108.066C175.567 108.066 174.588 109.396 174.588 111.036C174.588 112.677 175.567 114.006 176.775 114.006Z" fill="url(#paint3_linear)" fill-opacity="0.6"/>
<path d="M263.968 119.55C265.176 119.55 266.155 118.221 266.155 116.58C266.155 114.94 265.176 113.61 263.968 113.61C262.76 113.61 261.781 114.94 261.781 116.58C261.781 118.221 262.76 119.55 263.968 119.55Z" fill="url(#paint4_linear)" fill-opacity="0.6"/>
<path d="M351.161 136.658C352.369 136.658 353.349 135.328 353.349 133.688C353.349 132.047 352.369 130.718 351.161 130.718C349.953 130.718 348.974 132.047 348.974 133.688C348.974 135.328 349.953 136.658 351.161 136.658Z" fill="url(#paint5_linear)" fill-opacity="0.6"/>
<path d="M438.355 19.4416C439.563 19.4416 440.542 18.1119 440.542 16.4716C440.542 14.8313 439.563 13.5016 438.355 13.5016C437.147 13.5016 436.168 14.8313 436.168 16.4716C436.168 18.1119 437.147 19.4416 438.355 19.4416Z" fill="url(#paint6_linear)" fill-opacity="0.6"/>
<path d="M2.38776 78.2476L89.5812 3.95801L176.775 38.4892L263.968 130.678L351.161 58.606L438.355 54.0124V143.35H351.161H263.968H176.775H89.5812H2.38776V78.2476Z" fill="url(#paint7_linear)" fill-opacity="0.6"/>
<path d="M2.38774 81.2176C3.59566 81.2176 4.57487 79.8879 4.57487 78.2476C4.57487 76.6073 3.59566 75.2776 2.38774 75.2776C1.17983 75.2776 0.200623 76.6073 0.200623 78.2476C0.200623 79.8879 1.17983 81.2176 2.38774 81.2176Z" fill="url(#paint8_linear)" fill-opacity="0.6"/>
<path d="M89.5812 6.92801C90.7891 6.92801 91.7683 5.59829 91.7683 3.95801C91.7683 2.31772 90.7891 0.988007 89.5812 0.988007C88.3732 0.988007 87.394 2.31772 87.394 3.95801C87.394 5.59829 88.3732 6.92801 89.5812 6.92801Z" fill="url(#paint9_linear)" fill-opacity="0.6"/>
<path d="M176.775 41.4592C177.983 41.4592 178.962 40.1295 178.962 38.4892C178.962 36.8489 177.983 35.5192 176.775 35.5192C175.567 35.5192 174.588 36.8489 174.588 38.4892C174.588 40.1295 175.567 41.4592 176.775 41.4592Z" fill="url(#paint10_linear)" fill-opacity="0.6"/>
<path d="M263.968 133.648C265.176 133.648 266.155 132.318 266.155 130.678C266.155 129.038 265.176 127.708 263.968 127.708C262.76 127.708 261.781 129.038 261.781 130.678C261.781 132.318 262.76 133.648 263.968 133.648Z" fill="url(#paint11_linear)" fill-opacity="0.6"/>
<path d="M351.161 61.576C352.369 61.576 353.349 60.2463 353.349 58.606C353.349 56.9657 352.369 55.636 351.161 55.636C349.953 55.636 348.974 56.9657 348.974 58.606C348.974 60.2463 349.953 61.576 351.161 61.576Z" fill="url(#paint12_linear)" fill-opacity="0.6"/>
<path d="M438.355 56.9824C439.563 56.9824 440.542 55.6527 440.542 54.0124C440.542 52.3721 439.563 51.0424 438.355 51.0424C437.147 51.0424 436.168 52.3721 436.168 54.0124C436.168 55.6527 437.147 56.9824 438.355 56.9824Z" fill="url(#paint13_linear)" fill-opacity="0.6"/>
<path d="M2.38776 98.206L89.5812 25.6588L176.775 37.8556L263.968 22.966L351.161 35.0044L438.355 42.766V143.35H351.161H263.968H176.775H89.5812H2.38776V98.206Z" fill="url(#paint14_linear)" fill-opacity="0.6"/>
<path d="M2.38774 101.176C3.59566 101.176 4.57487 99.8463 4.57487 98.206C4.57487 96.5657 3.59566 95.236 2.38774 95.236C1.17983 95.236 0.200623 96.5657 0.200623 98.206C0.200623 99.8463 1.17983 101.176 2.38774 101.176Z" fill="url(#paint15_linear)" fill-opacity="0.6"/>
<path d="M89.5812 28.6288C90.7891 28.6288 91.7683 27.2991 91.7683 25.6588C91.7683 24.0185 90.7891 22.6888 89.5812 22.6888C88.3732 22.6888 87.394 24.0185 87.394 25.6588C87.394 27.2991 88.3732 28.6288 89.5812 28.6288Z" fill="url(#paint16_linear)" fill-opacity="0.6"/>
<path d="M176.775 40.8256C177.983 40.8256 178.962 39.4959 178.962 37.8556C178.962 36.2153 177.983 34.8856 176.775 34.8856C175.567 34.8856 174.588 36.2153 174.588 37.8556C174.588 39.4959 175.567 40.8256 176.775 40.8256Z" fill="url(#paint17_linear)" fill-opacity="0.6"/>
<path d="M263.968 25.936C265.176 25.936 266.155 24.6063 266.155 22.966C266.155 21.3257 265.176 19.996 263.968 19.996C262.76 19.996 261.781 21.3257 261.781 22.966C261.781 24.6063 262.76 25.936 263.968 25.936Z" fill="url(#paint18_linear)" fill-opacity="0.6"/>
<path d="M351.161 37.9744C352.369 37.9744 353.349 36.6447 353.349 35.0044C353.349 33.3641 352.369 32.0344 351.161 32.0344C349.953 32.0344 348.974 33.3641 348.974 35.0044C348.974 36.6447 349.953 37.9744 351.161 37.9744Z" fill="url(#paint19_linear)" fill-opacity="0.6"/>
<path d="M438.355 45.736C439.563 45.736 440.542 44.4063 440.542 42.766C440.542 41.1257 439.563 39.796 438.355 39.796C437.147 39.796 436.168 41.1257 436.168 42.766C436.168 44.4063 437.147 45.736 438.355 45.736Z" fill="url(#paint20_linear)" fill-opacity="0.6"/>
<defs>
<linearGradient id="paint0_linear" x1="220.371" y1="16.4716" x2="220.371" y2="143.35" gradientUnits="userSpaceOnUse">
<stop stop-color="#7855E7"/>
<stop offset="1" stop-color="#7855E7" stop-opacity="0"/>
</linearGradient>
<linearGradient id="paint1_linear" x1="2.38774" y1="15.5608" x2="2.38774" y2="21.5008" gradientUnits="userSpaceOnUse">
<stop stop-color="#7855E7"/>
<stop offset="1" stop-color="#7855E7" stop-opacity="0"/>
</linearGradient>
<linearGradient id="paint2_linear" x1="89.5812" y1="86.524" x2="89.5812" y2="92.464" gradientUnits="userSpaceOnUse">
<stop stop-color="#7855E7"/>
<stop offset="1" stop-color="#7855E7" stop-opacity="0"/>
</linearGradient>
<linearGradient id="paint3_linear" x1="176.775" y1="108.066" x2="176.775" y2="114.006" gradientUnits="userSpaceOnUse">
<stop stop-color="#7855E7"/>
<stop offset="1" stop-color="#7855E7" stop-opacity="0"/>
</linearGradient>
<linearGradient id="paint4_linear" x1="263.968" y1="113.61" x2="263.968" y2="119.55" gradientUnits="userSpaceOnUse">
<stop stop-color="#7855E7"/>
<stop offset="1" stop-color="#7855E7" stop-opacity="0"/>
</linearGradient>
<linearGradient id="paint5_linear" x1="351.161" y1="130.718" x2="351.161" y2="136.658" gradientUnits="userSpaceOnUse">
<stop stop-color="#7855E7"/>
<stop offset="1" stop-color="#7855E7" stop-opacity="0"/>
</linearGradient>
<linearGradient id="paint6_linear" x1="438.355" y1="13.5016" x2="438.355" y2="19.4416" gradientUnits="userSpaceOnUse">
<stop stop-color="#7855E7"/>
<stop offset="1" stop-color="#7855E7" stop-opacity="0"/>
</linearGradient>
<linearGradient id="paint7_linear" x1="220.371" y1="3.95801" x2="220.371" y2="143.35" gradientUnits="userSpaceOnUse">
<stop stop-color="#157CF5"/>
<stop offset="1" stop-color="#157CF5" stop-opacity="0"/>
</linearGradient>
<linearGradient id="paint8_linear" x1="2.38774" y1="75.2776" x2="2.38774" y2="81.2176" gradientUnits="userSpaceOnUse">
<stop stop-color="#157CF5"/>
<stop offset="1" stop-color="#157CF5" stop-opacity="0"/>
</linearGradient>
<linearGradient id="paint9_linear" x1="89.5812" y1="0.988007" x2="89.5812" y2="6.92801" gradientUnits="userSpaceOnUse">
<stop stop-color="#157CF5"/>
<stop offset="1" stop-color="#157CF5" stop-opacity="0"/>
</linearGradient>
<linearGradient id="paint10_linear" x1="176.775" y1="35.5192" x2="176.775" y2="41.4592" gradientUnits="userSpaceOnUse">
<stop stop-color="#157CF5"/>
<stop offset="1" stop-color="#157CF5" stop-opacity="0"/>
</linearGradient>
<linearGradient id="paint11_linear" x1="263.968" y1="127.708" x2="263.968" y2="133.648" gradientUnits="userSpaceOnUse">
<stop stop-color="#157CF5"/>
<stop offset="1" stop-color="#157CF5" stop-opacity="0"/>
</linearGradient>
<linearGradient id="paint12_linear" x1="351.161" y1="55.636" x2="351.161" y2="61.576" gradientUnits="userSpaceOnUse">
<stop stop-color="#157CF5"/>
<stop offset="1" stop-color="#157CF5" stop-opacity="0"/>
</linearGradient>
<linearGradient id="paint13_linear" x1="438.355" y1="51.0424" x2="438.355" y2="56.9824" gradientUnits="userSpaceOnUse">
<stop stop-color="#157CF5"/>
<stop offset="1" stop-color="#157CF5" stop-opacity="0"/>
</linearGradient>
<linearGradient id="paint14_linear" x1="220.371" y1="22.966" x2="220.371" y2="143.35" gradientUnits="userSpaceOnUse">
<stop stop-color="#84F3AB"/>
<stop offset="1" stop-color="#84F3AB" stop-opacity="0"/>
</linearGradient>
<linearGradient id="paint15_linear" x1="2.38774" y1="95.236" x2="2.38774" y2="101.176" gradientUnits="userSpaceOnUse">
<stop stop-color="#84F3AB"/>
<stop offset="1" stop-color="#84F3AB" stop-opacity="0"/>
</linearGradient>
<linearGradient id="paint16_linear" x1="89.5812" y1="22.6888" x2="89.5812" y2="28.6288" gradientUnits="userSpaceOnUse">
<stop stop-color="#84F3AB"/>
<stop offset="1" stop-color="#84F3AB" stop-opacity="0"/>
</linearGradient>
<linearGradient id="paint17_linear" x1="176.775" y1="34.8856" x2="176.775" y2="40.8256" gradientUnits="userSpaceOnUse">
<stop stop-color="#84F3AB"/>
<stop offset="1" stop-color="#84F3AB" stop-opacity="0"/>
</linearGradient>
<linearGradient id="paint18_linear" x1="263.968" y1="19.996" x2="263.968" y2="25.936" gradientUnits="userSpaceOnUse">
<stop stop-color="#84F3AB"/>
<stop offset="1" stop-color="#84F3AB" stop-opacity="0"/>
</linearGradient>
<linearGradient id="paint19_linear" x1="351.161" y1="32.0344" x2="351.161" y2="37.9744" gradientUnits="userSpaceOnUse">
<stop stop-color="#84F3AB"/>
<stop offset="1" stop-color="#84F3AB" stop-opacity="0"/>
</linearGradient>
<linearGradient id="paint20_linear" x1="438.355" y1="39.796" x2="438.355" y2="45.736" gradientUnits="userSpaceOnUse">
<stop stop-color="#84F3AB"/>
<stop offset="1" stop-color="#84F3AB" stop-opacity="0"/>
</linearGradient>
</defs>
</svg>
