<svg id="Layer_1" enable-background="new 0 0 256 256" height="512" viewBox="0 0 256 256" width="512" xmlns="http://www.w3.org/2000/svg"><g id="Layer_85"><g><path d="m202 29.2h-2.7v16.3h2.7c3.5 0 6.4-2.9 6.4-6.4v-3.5c0-3.5-2.9-6.4-6.4-6.4z" fill="#dae6f1"/><path d="m202 55.3h-2.7v39.2h2.7c3.5 0 6.4-2.9 6.4-6.4v-26.4c0-3.5-2.9-6.4-6.4-6.4z" fill="#dae6f1"/><path d="m180 253.5h-103.6c-10.6 0-19.3-8.6-19.3-19.3v-212.4c0-10.6 8.6-19.3 19.3-19.3h103.6c10.6 0 19.3 8.6 19.3 19.3v212.4c0 10.7-8.6 19.3-19.3 19.3z" fill="#3a70bf"/><path d="m180 13.4h-30.1c-3.7 0-7.2 2.1-9 5.4-4.5 7.8-14.4 10.5-22.2 6.1-2.5-1.4-4.6-3.5-6.1-6.1-1.8-3.3-5.2-5.3-9-5.4h-27.2c-4.6 0-8.4 3.8-8.4 8.4v212.4c0 4.6 3.8 8.4 8.4 8.4h103.6c4.6 0 8.4-3.8 8.4-8.4v-212.4c0-4.7-3.8-8.4-8.4-8.4z" fill="#9be5f9"/><path d="m151.3 29.2h15.1c1.2 0 2.2 1 2.2 2.2v6.4c0 1.2-1 2.2-2.2 2.2h-15.1c-1.2 0-2.2-1-2.2-2.2v-6.4c-.1-1.2.9-2.2 2.2-2.2z" fill="#c7d7e5"/><path d="m151.3 29.2c-1.2 0-2.2 1-2.2 2.2v6.4c0 1.2 1 2.2 2.2 2.2h6l4.7-10.9h-10.7z" fill="#f5c84c"/><path d="m42.9 30.9h-2.1v-2.1c0-1.5-1.3-2.8-2.8-2.8s-2.8 1.3-2.8 2.8v2.1h-2.1c-1.5 0-2.8 1.3-2.8 2.8s1.3 2.8 2.8 2.8h2.1v2.1c0 1.5 1.3 2.8 2.8 2.8s2.8-1.3 2.8-2.8v-2.1h2.1c1.5 0 2.8-1.3 2.8-2.8 0-1.6-1.2-2.8-2.8-2.8z" fill="#70d6f9"/><path d="m227.6 169.9c-4-.7-7.1-3.8-7.9-7.7 0-.1-.1-.2-.2-.1-.1 0-.1.1-.1.1-.8 4-3.9 7-7.9 7.7-.1 0-.2.1-.1.2 0 .1.1.1.1.1 4 .7 7.1 3.8 7.9 7.7 0 .1.1.2.2.1.1 0 .1-.1.1-.1.8-4 3.9-7 7.9-7.7.1 0 .2-.1.1-.2 0 0 0-.1-.1-.1z" fill="#f5c84c"/><circle cx="31.3" cy="59" fill="#f5c84c" r="3"/><circle cx="214.3" cy="121" fill="#ef4460" r="3"/><circle cx="211.3" cy="198" fill="#87d147" r="3"/><path d="m89.1 55.3h78.3c1.4 0 2.5 1.1 2.5 2.5v78c0 1.4-1.1 2.5-2.5 2.5h-78.3c-1.4 0-2.5-1.1-2.5-2.5v-78c-.1-1.4 1.1-2.5 2.5-2.5z" fill="#edf4fc"/><g fill="#29589f"><path d="m96.5 65.3h16v15.9h-16z"/><path d="m96.5 112.5h16v15.9h-16z"/><path d="m143.9 65.3h16v15.9h-16z"/><path d="m135.5 81.3h8.4v8.4h-8.4z"/><path d="m127.1 72.9h8.4v8.4h-8.4z"/><path d="m120.9 112.5h8.4v8.4h-8.4z"/><path d="m104.2 89.6h8.4v8.4h-8.4z"/><path d="m143.9 95.7h8.4v8.4h-8.4z"/><path d="m135.5 104.1h8.4v8.4h-8.4z"/><path d="m112.5 81.3h8.4v8.4h-8.4z"/><path d="m112.5 104.1h8.4v8.4h-8.4z"/><path d="m120.9 89.6h14.5v14.4h-14.5z"/><path d="m143.9 112.5h16v15.9h-16z"/></g><circle cx="128.2" cy="187.9" fill="#edf4fc" r="24.5"/><path d="m126.8 198.8c-1.1 0-2.2-.5-3-1.3l-6.9-6.9c-1.7-1.7-1.7-4.4 0-6.1s4.4-1.7 6.1 0l3.8 3.8 8.4-8.4c1.7-1.7 4.4-1.7 6.1 0s1.7 4.4 0 6.1l-11.5 11.5c-.8.8-1.9 1.3-3 1.3z" fill="#87d147"/><path d="m202 48c4.9 0 8.9-4 8.9-8.9v-3.5c0-4.9-4-8.9-8.9-8.9h-.2v-4.9c0-12-9.8-21.8-21.8-21.8h-103.6c-12 0-21.8 9.8-21.8 21.8v212.4c0 12 9.8 21.8 21.8 21.8h103.6c12 0 21.8-9.8 21.8-21.8v-137.2h.2c4.9 0 8.9-4 8.9-8.9v-26.4c0-4.9-4-8.9-8.9-8.9h-.2v-4.8zm-.2-16.3h.2c2.2 0 3.9 1.8 3.9 3.9v3.5c0 2.2-1.8 3.9-3.9 3.9h-.2zm-5 202.5c0 9.3-7.5 16.8-16.8 16.8h-103.6c-9.3 0-16.8-7.5-16.8-16.8v-212.4c.1-9.3 7.6-16.8 16.8-16.8h103.6c9.3 0 16.8 7.5 16.8 16.8zm9.1-146.1c0 2.2-1.8 3.9-3.9 3.9h-.2v-14.6h4.1zm-3.9-30.3c2.2 0 3.9 1.8 3.9 3.9v10.7h-4.1v-14.6z"/><path d="m180 10.9h-30.1c-4.6.1-8.9 2.6-11.2 6.6-3.8 6.6-12.2 8.9-18.9 5.1-2.1-1.2-3.9-3-5.1-5.1-2.3-4-6.5-6.6-11.2-6.6h-27.1c-6 0-10.9 4.9-10.9 10.9v212.4c0 6 4.9 10.9 10.9 10.9h103.6c6 0 10.9-4.9 10.9-10.9v-212.4c0-6-4.9-10.9-10.9-10.9zm5.9 223.3c0 3.3-2.6 5.9-5.9 5.9h-103.6c-3.3 0-5.9-2.6-5.9-5.9v-212.4c0-3.3 2.6-5.9 5.9-5.9h27.1c2.9 0 5.5 1.6 6.8 4.1 5.2 9 16.7 12.1 25.7 7 2.9-1.7 5.3-4.1 7-7 1.4-2.5 4-4.1 6.8-4.1h30.2c3.3 0 5.9 2.6 5.9 5.9z"/><path d="m122.9 16.4h7.6c1.4 0 2.5-1.1 2.5-2.5s-1.1-2.5-2.5-2.5h-7.6c-1.4 0-2.5 1.1-2.5 2.5s1.1 2.5 2.5 2.5z"/><path d="m171.9 32.1h-.8v-.7c0-2.6-2.1-4.7-4.7-4.7h-15.1c-2.6 0-4.7 2.1-4.7 4.7v6.4c0 2.6 2.1 4.7 4.7 4.7h15.1c2.6 0 4.7-2.1 4.7-4.7v-.7h.8c1.4 0 2.5-1.1 2.5-2.5s-1.1-2.5-2.5-2.5zm-16.3 5.5h-4.1v-5.9h6.6zm10.5 0h-5.1l2.5-5.9h2.5z"/><path d="m97.9 37.1c1.4 0 2.5-1.1 2.5-2.5s-1.1-2.5-2.5-2.5h-13.1c-1.4 0-2.5 1.1-2.5 2.5s1.1 2.5 2.5 2.5z"/><path d="m115 65.3c0-1.4-1.1-2.5-2.5-2.5h-16c-1.4 0-2.5 1.1-2.5 2.5v15.9c0 1.4 1.1 2.5 2.5 2.5h13.5v3.4h-5.9c-1.4 0-2.5 1.1-2.5 2.5v8.4c0 1.4 1.1 2.5 2.5 2.5h8.4c1.4 0 2.5-1.1 2.5-2.5v-5.9h3.4v9.4h-5.9c-1.4 0-2.5 1.1-2.5 2.5v5.9h-13.5c-1.4 0-2.5 1.1-2.5 2.5v15.9c0 1.4 1.1 2.5 2.5 2.5h16c1.4 0 2.5-1.1 2.5-2.5v-13.3h3.4v5.9c0 1.4 1.1 2.5 2.5 2.5h8.4c1.4 0 2.5-1.1 2.5-2.5v-8.4c0-1.4-1.1-2.5-2.5-2.5h-5.9v-3.4h9.5v5.9c0 1.4 1.1 2.5 2.5 2.5h5.9v13.4c0 1.4 1.1 2.5 2.5 2.5h16c1.4 0 2.5-1.1 2.5-2.5v-15.9c0-1.4-1.1-2.5-2.5-2.5h-13.5v-3.4h5.9c1.4 0 2.5-1.1 2.5-2.5v-8.4c0-1.4-1.1-2.5-2.5-2.5h-8.4c-1.4 0-2.5 1.1-2.5 2.5v5.9h-3.3v-9.4h5.9c1.4 0 2.5-1.1 2.5-2.5v-5.9h13.5c1.4 0 2.5-1.1 2.5-2.5v-16c0-1.4-1.1-2.5-2.5-2.5h-16c-1.4 0-2.5 1.1-2.5 2.5v13.4h-3.4v-5.9c0-1.4-1.1-2.5-2.5-2.5h-8.4c-1.4 0-2.5 1.1-2.5 2.5v8.4c0 1.4 1.1 2.5 2.5 2.5h5.9v3.4h-9.5v-5.9c0-1.4-1.1-2.5-2.5-2.5h-6zm-5 30.3h-3.4v-3.4h3.4zm0-16.8h-11v-11h11zm0 47.1h-11v-10.9h11zm8.4-15.9h-3.4v-3.4h3.4zm28-11.8h3.4v3.4h-3.4zm0 16.8h11v10.9h-11zm0-47.2h11v10.9h-11zm-8.4 16h3.4v3.4h-3.4zm0 22.8h3.4v3.4h-3.4zm-8.4-27.8v-3.4h3.4v3.4zm-6.2 13.3h9.5v9.4h-9.5zm0 22.9h3.4v3.4h-3.4zm-5-31.2v3.4h-3.4v-3.4z"/><path d="m84 57.8v23.4c0 1.4 1.1 2.5 2.5 2.5s2.5-1.1 2.5-2.5v-23.4h23.5c1.4 0 2.5-1.1 2.5-2.5s-1.1-2.5-2.5-2.5h-23.4c-2.8 0-5.1 2.3-5.1 5z"/><path d="m115 138.4c0-1.4-1.1-2.5-2.5-2.5h-23.5v-23.4c0-1.4-1.1-2.5-2.5-2.5s-2.5 1.1-2.5 2.5v23.4c0 2.8 2.3 5 5 5h23.5c1.4 0 2.5-1.1 2.5-2.5z"/><path d="m167.4 52.8h-23.5c-1.4 0-2.5 1.1-2.5 2.5s1.1 2.5 2.5 2.5h23.5v23.4c0 1.4 1.1 2.5 2.5 2.5s2.5-1.1 2.5-2.5v-23.4c0-2.7-2.3-5-5-5z"/><path d="m169.9 110c-1.4 0-2.5 1.1-2.5 2.5v23.4h-23.5c-1.4 0-2.5 1.1-2.5 2.5s1.1 2.5 2.5 2.5h23.5c2.8 0 5-2.3 5-5v-23.4c0-1.4-1.1-2.5-2.5-2.5z"/><path d="m128.2 160.9c-14.9 0-27 12.1-27 27s12.1 27 27 27 27-12.1 27-27-12.1-27-27-27zm0 49c-12.2 0-22-9.9-22-22s9.9-22 22-22c12.2 0 22 9.9 22 22 0 12.2-9.8 22-22 22z"/><path d="m133.4 178.2-6.7 6.7-2.1-2.1c-2.7-2.7-7-2.7-9.6 0s-2.7 7 0 9.6l6.9 6.9c2.7 2.7 7 2.7 9.6 0l11.5-11.5c2.7-2.6 2.7-6.9.1-9.6s-6.9-2.7-9.7 0c.1 0 .1 0 0 0zm6.1 6.1-11.5 11.5c-.7.7-1.8.7-2.5 0l-6.9-6.9c-.7-.7-.7-1.8 0-2.5s1.8-.7 2.5 0l3.8 3.8c1 1 2.6 1 3.5 0l8.4-8.4c.7-.7 1.8-.7 2.5 0 .9.7.9 1.8.2 2.5z"/></g></g></svg>