<svg width="278" height="60" viewBox="0 0 278 60" fill="none" xmlns="http://www.w3.org/2000/svg">
<path d="M71.3264 43.21C69.8664 43.21 68.5464 42.96 67.3664 42.46C66.2064 41.96 65.2864 41.24 64.6064 40.3C63.9264 39.36 63.5764 38.25 63.5564 36.97H68.0564C68.1164 37.83 68.4164 38.51 68.9564 39.01C69.5164 39.51 70.2764 39.76 71.2364 39.76C72.2164 39.76 72.9864 39.53 73.5464 39.07C74.1064 38.59 74.3864 37.97 74.3864 37.21C74.3864 36.59 74.1964 36.08 73.8164 35.68C73.4364 35.28 72.9564 34.97 72.3764 34.75C71.8164 34.51 71.0364 34.25 70.0364 33.97C68.6764 33.57 67.5664 33.18 66.7064 32.8C65.8664 32.4 65.1364 31.81 64.5164 31.03C63.9164 30.23 63.6164 29.17 63.6164 27.85C63.6164 26.61 63.9264 25.53 64.5464 24.61C65.1664 23.69 66.0364 22.99 67.1564 22.51C68.2764 22.01 69.5564 21.76 70.9964 21.76C73.1564 21.76 74.9064 22.29 76.2464 23.35C77.6064 24.39 78.3564 25.85 78.4964 27.73H73.8764C73.8364 27.01 73.5264 26.42 72.9464 25.96C72.3864 25.48 71.6364 25.24 70.6964 25.24C69.8764 25.24 69.2164 25.45 68.7164 25.87C68.2364 26.29 67.9964 26.9 67.9964 27.7C67.9964 28.26 68.1764 28.73 68.5364 29.11C68.9164 29.47 69.3764 29.77 69.9164 30.01C70.4764 30.23 71.2564 30.49 72.2564 30.79C73.6164 31.19 74.7264 31.59 75.5864 31.99C76.4464 32.39 77.1864 32.99 77.8064 33.79C78.4264 34.59 78.7364 35.64 78.7364 36.94C78.7364 38.06 78.4464 39.1 77.8664 40.06C77.2864 41.02 76.4364 41.79 75.3164 42.37C74.1964 42.93 72.8664 43.21 71.3264 43.21ZM81.2976 34.69C81.2976 32.97 81.6476 31.47 82.3476 30.19C83.0476 28.89 84.0176 27.89 85.2576 27.19C86.4976 26.47 87.9176 26.11 89.5176 26.11C91.5776 26.11 93.2776 26.63 94.6176 27.67C95.9776 28.69 96.8876 30.13 97.3476 31.99H92.8176C92.5776 31.27 92.1676 30.71 91.5876 30.31C91.0276 29.89 90.3276 29.68 89.4876 29.68C88.2876 29.68 87.3376 30.12 86.6376 31C85.9376 31.86 85.5876 33.09 85.5876 34.69C85.5876 36.27 85.9376 37.5 86.6376 38.38C87.3376 39.24 88.2876 39.67 89.4876 39.67C91.1876 39.67 92.2976 38.91 92.8176 37.39H97.3476C96.8876 39.19 95.9776 40.62 94.6176 41.68C93.2576 42.74 91.5576 43.27 89.5176 43.27C87.9176 43.27 86.4976 42.92 85.2576 42.22C84.0176 41.5 83.0476 40.5 82.3476 39.22C81.6476 37.92 81.2976 36.41 81.2976 34.69ZM99.3445 34.63C99.3445 32.95 99.6745 31.46 100.334 30.16C101.014 28.86 101.924 27.86 103.064 27.16C104.224 26.46 105.514 26.11 106.934 26.11C108.174 26.11 109.254 26.36 110.174 26.86C111.114 27.36 111.864 27.99 112.424 28.75V26.38H116.654V43H112.424V40.57C111.884 41.35 111.134 42 110.174 42.52C109.234 43.02 108.144 43.27 106.904 43.27C105.504 43.27 104.224 42.91 103.064 42.19C101.924 41.47 101.014 40.46 100.334 39.16C99.6745 37.84 99.3445 36.33 99.3445 34.63ZM112.424 34.69C112.424 33.67 112.224 32.8 111.824 32.08C111.424 31.34 110.884 30.78 110.204 30.4C109.524 30 108.794 29.8 108.014 29.8C107.234 29.8 106.514 29.99 105.854 30.37C105.194 30.75 104.654 31.31 104.234 32.05C103.834 32.77 103.634 33.63 103.634 34.63C103.634 35.63 103.834 36.51 104.234 37.27C104.654 38.01 105.194 38.58 105.854 38.98C106.534 39.38 107.254 39.58 108.014 39.58C108.794 39.58 109.524 39.39 110.204 39.01C110.884 38.61 111.424 38.05 111.824 37.33C112.224 36.59 112.424 35.71 112.424 34.69ZM129.967 26.14C131.947 26.14 133.547 26.77 134.767 28.03C135.987 29.27 136.597 31.01 136.597 33.25V43H132.397V33.82C132.397 32.5 132.067 31.49 131.407 30.79C130.747 30.07 129.847 29.71 128.707 29.71C127.547 29.71 126.627 30.07 125.947 30.79C125.287 31.49 124.957 32.5 124.957 33.82V43H120.757V26.38H124.957V28.45C125.517 27.73 126.227 27.17 127.087 26.77C127.967 26.35 128.927 26.14 129.967 26.14ZM157.961 22.06V43H153.761V34.09H144.791V43H140.591V22.06H144.791V30.67H153.761V22.06H157.961ZM177.544 34.33C177.544 34.93 177.504 35.47 177.424 35.95H165.274C165.374 37.15 165.794 38.09 166.534 38.77C167.274 39.45 168.184 39.79 169.264 39.79C170.824 39.79 171.934 39.12 172.594 37.78H177.124C176.644 39.38 175.724 40.7 174.364 41.74C173.004 42.76 171.334 43.27 169.354 43.27C167.754 43.27 166.314 42.92 165.034 42.22C163.774 41.5 162.784 40.49 162.064 39.19C161.364 37.89 161.014 36.39 161.014 34.69C161.014 32.97 161.364 31.46 162.064 30.16C162.764 28.86 163.744 27.86 165.004 27.16C166.264 26.46 167.714 26.11 169.354 26.11C170.934 26.11 172.344 26.45 173.584 27.13C174.844 27.81 175.814 28.78 176.494 30.04C177.194 31.28 177.544 32.71 177.544 34.33ZM173.194 33.13C173.174 32.05 172.784 31.19 172.024 30.55C171.264 29.89 170.334 29.56 169.234 29.56C168.194 29.56 167.314 29.88 166.594 30.52C165.894 31.14 165.464 32.01 165.304 33.13H173.194ZM184.81 28.96C185.35 28.08 186.05 27.39 186.91 26.89C187.79 26.39 188.79 26.14 189.91 26.14V30.55H188.8C187.48 30.55 186.48 30.86 185.8 31.48C185.14 32.1 184.81 33.18 184.81 34.72V43H180.61V26.38H184.81V28.96ZM208.189 34.33C208.189 34.93 208.149 35.47 208.069 35.95H195.919C196.019 37.15 196.439 38.09 197.179 38.77C197.919 39.45 198.829 39.79 199.909 39.79C201.469 39.79 202.579 39.12 203.239 37.78H207.769C207.289 39.38 206.369 40.7 205.009 41.74C203.649 42.76 201.979 43.27 199.999 43.27C198.399 43.27 196.959 42.92 195.679 42.22C194.419 41.5 193.429 40.49 192.709 39.19C192.009 37.89 191.659 36.39 191.659 34.69C191.659 32.97 192.009 31.46 192.709 30.16C193.409 28.86 194.389 27.86 195.649 27.16C196.909 26.46 198.359 26.11 199.999 26.11C201.579 26.11 202.989 26.45 204.229 27.13C205.489 27.81 206.459 28.78 207.139 30.04C207.839 31.28 208.189 32.71 208.189 34.33ZM203.839 33.13C203.819 32.05 203.429 31.19 202.669 30.55C201.909 29.89 200.979 29.56 199.879 29.56C198.839 29.56 197.959 29.88 197.239 30.52C196.539 31.14 196.109 32.01 195.949 33.13H203.839Z" fill="#4374ED"/>
<path d="M213.115 43.21C212.355 43.21 211.725 42.98 211.225 42.52C210.745 42.04 210.505 41.45 210.505 40.75C210.505 40.05 210.745 39.47 211.225 39.01C211.725 38.53 212.355 38.29 213.115 38.29C213.855 38.29 214.465 38.53 214.945 39.01C215.425 39.47 215.665 40.05 215.665 40.75C215.665 41.45 215.425 42.04 214.945 42.52C214.465 42.98 213.855 43.21 213.115 43.21ZM217.968 34.63C217.968 32.95 218.298 31.46 218.958 30.16C219.638 28.86 220.548 27.86 221.688 27.16C222.848 26.46 224.138 26.11 225.558 26.11C226.798 26.11 227.878 26.36 228.798 26.86C229.738 27.36 230.488 27.99 231.048 28.75V26.38H235.278V43H231.048V40.57C230.508 41.35 229.758 42 228.798 42.52C227.858 43.02 226.768 43.27 225.528 43.27C224.128 43.27 222.848 42.91 221.688 42.19C220.548 41.47 219.638 40.46 218.958 39.16C218.298 37.84 217.968 36.33 217.968 34.63ZM231.048 34.69C231.048 33.67 230.848 32.8 230.448 32.08C230.048 31.34 229.508 30.78 228.828 30.4C228.148 30 227.418 29.8 226.638 29.8C225.858 29.8 225.138 29.99 224.478 30.37C223.818 30.75 223.278 31.31 222.858 32.05C222.458 32.77 222.258 33.63 222.258 34.63C222.258 35.63 222.458 36.51 222.858 37.27C223.278 38.01 223.818 38.58 224.478 38.98C225.158 39.38 225.878 39.58 226.638 39.58C227.418 39.58 228.148 39.39 228.828 39.01C229.508 38.61 230.048 38.05 230.448 37.33C230.848 36.59 231.048 35.71 231.048 34.69ZM243.58 28.78C244.12 28.02 244.86 27.39 245.8 26.89C246.76 26.37 247.85 26.11 249.07 26.11C250.49 26.11 251.77 26.46 252.91 27.16C254.07 27.86 254.98 28.86 255.64 30.16C256.32 31.44 256.66 32.93 256.66 34.63C256.66 36.33 256.32 37.84 255.64 39.16C254.98 40.46 254.07 41.47 252.91 42.19C251.77 42.91 250.49 43.27 249.07 43.27C247.85 43.27 246.77 43.02 245.83 42.52C244.91 42.02 244.16 41.39 243.58 40.63V50.92H239.38V26.38H243.58V28.78ZM252.37 34.63C252.37 33.63 252.16 32.77 251.74 32.05C251.34 31.31 250.8 30.75 250.12 30.37C249.46 29.99 248.74 29.8 247.96 29.8C247.2 29.8 246.48 30 245.8 30.4C245.14 30.78 244.6 31.34 244.18 32.08C243.78 32.82 243.58 33.69 243.58 34.69C243.58 35.69 243.78 36.56 244.18 37.3C244.6 38.04 245.14 38.61 245.8 39.01C246.48 39.39 247.2 39.58 247.96 39.58C248.74 39.58 249.46 39.38 250.12 38.98C250.8 38.58 251.34 38.01 251.74 37.27C252.16 36.53 252.37 35.65 252.37 34.63ZM263.912 28.78C264.452 28.02 265.192 27.39 266.132 26.89C267.092 26.37 268.182 26.11 269.402 26.11C270.822 26.11 272.102 26.46 273.242 27.16C274.402 27.86 275.312 28.86 275.972 30.16C276.652 31.44 276.992 32.93 276.992 34.63C276.992 36.33 276.652 37.84 275.972 39.16C275.312 40.46 274.402 41.47 273.242 42.19C272.102 42.91 270.822 43.27 269.402 43.27C268.182 43.27 267.102 43.02 266.162 42.52C265.242 42.02 264.492 41.39 263.912 40.63V50.92H259.712V26.38H263.912V28.78ZM272.702 34.63C272.702 33.63 272.492 32.77 272.072 32.05C271.672 31.31 271.132 30.75 270.452 30.37C269.792 29.99 269.072 29.8 268.292 29.8C267.532 29.8 266.812 30 266.132 30.4C265.472 30.78 264.932 31.34 264.512 32.08C264.112 32.82 263.912 33.69 263.912 34.69C263.912 35.69 264.112 36.56 264.512 37.3C264.932 38.04 265.472 38.61 266.132 39.01C266.812 39.39 267.532 39.58 268.292 39.58C269.072 39.58 269.792 39.38 270.452 38.98C271.132 38.58 271.672 38.01 272.072 37.27C272.492 36.53 272.702 35.65 272.702 34.63Z" fill="#9226C5"/>
<mask id="mask0" mask-type="alpha" maskUnits="userSpaceOnUse" x="13" y="12" width="36" height="35">
<rect x="34.1064" y="15" width="11.0419" height="11" stroke="black" stroke-width="2"/>
<rect x="36.6162" y="35.5" width="6.02258" height="6" stroke="black"/>
<rect x="16.0483" y="33" width="11.0419" height="11" stroke="black" stroke-width="2"/>
<rect x="16.0483" y="15" width="11.0419" height="11" stroke="black" stroke-width="2"/>
<rect x="38.1226" y="37" width="3.00968" height="3" fill="black"/>
<rect x="18.0581" y="17" width="7.02258" height="7" fill="black"/>
<rect x="36.1162" y="17" width="7.02258" height="7" fill="black"/>
<rect x="18.0581" y="35" width="7.02258" height="7" fill="black"/>
<rect x="47.1514" y="12" width="1.00323" height="5" fill="black"/>
<rect x="47.1514" y="42" width="1.00323" height="5" fill="black"/>
<rect x="45.145" y="32" width="1.00323" height="9" fill="black"/>
<rect x="34.1099" y="33" width="1" height="12.0387" transform="rotate(-90 34.1099 33)" fill="black"/>
<rect x="33.1064" y="45" width="1" height="9.02903" transform="rotate(-90 33.1064 45)" fill="black"/>
<rect x="33.1064" y="32" width="1.00323" height="12" fill="black"/>
<rect x="13.042" y="47" width="1" height="5.01613" transform="rotate(-90 13.042 47)" fill="black"/>
<rect x="43.1387" y="47" width="1" height="5.01613" transform="rotate(-90 43.1387 47)" fill="black"/>
<rect x="43.1387" y="13" width="1" height="5.01613" transform="rotate(-90 43.1387 13)" fill="black"/>
<rect x="13.042" y="13" width="1" height="5.01613" transform="rotate(-90 13.042 13)" fill="black"/>
<rect x="13.042" y="42" width="1.00323" height="5" fill="black"/>
<rect x="13.042" y="12" width="1.00323" height="5" fill="black"/>
</mask>
<g mask="url(#mask0)">
<rect x="12.0386" y="11" width="37.1194" height="37" fill="#9226C5"/>
</g>
</svg>
