<svg width="60" height="60" viewBox="0 0 60 60" fill="none" xmlns="http://www.w3.org/2000/svg">
<circle cx="30" cy="30" r="28.5" stroke="url(#paint0_linear)" stroke-width="3"/>
<mask id="mask0" mask-type="alpha" maskUnits="userSpaceOnUse" x="13" y="12" width="35" height="35">
<rect x="34" y="15" width="11" height="11" stroke="black" stroke-width="2"/>
<rect x="36.5" y="35.5" width="6" height="6" stroke="black"/>
<rect x="16" y="33" width="11" height="11" stroke="black" stroke-width="2"/>
<rect x="16" y="15" width="11" height="11" stroke="black" stroke-width="2"/>
<rect x="38" y="37" width="3" height="3" fill="black"/>
<rect x="18" y="17" width="7" height="7" fill="black"/>
<rect x="36" y="17" width="7" height="7" fill="black"/>
<rect x="18" y="35" width="7" height="7" fill="black"/>
<rect x="47" y="12" width="1" height="5" fill="black"/>
<rect x="47" y="42" width="1" height="5" fill="black"/>
<rect x="45" y="32" width="1" height="9" fill="black"/>
<rect x="34" y="33" width="1" height="12" transform="rotate(-90 34 33)" fill="black"/>
<rect x="33" y="45" width="1" height="9" transform="rotate(-90 33 45)" fill="black"/>
<rect x="33" y="32" width="1" height="12" fill="black"/>
<rect x="13" y="47" width="1" height="5" transform="rotate(-90 13 47)" fill="black"/>
<rect x="43" y="47" width="1" height="5" transform="rotate(-90 43 47)" fill="black"/>
<rect x="43" y="13" width="1" height="5" transform="rotate(-90 43 13)" fill="black"/>
<rect x="13" y="13" width="1" height="5" transform="rotate(-90 13 13)" fill="black"/>
<rect x="13" y="42" width="1" height="5" fill="black"/>
<rect x="13" y="12" width="1" height="5" fill="black"/>
</mask>
<g mask="url(#mask0)">
<rect x="12" y="11" width="37" height="37" fill="url(#paint1_linear)"/>
</g>
<defs>
<linearGradient id="paint0_linear" x1="30" y1="0" x2="30" y2="60" gradientUnits="userSpaceOnUse">
<stop offset="0.223958" stop-color="#4374ED"/>
<stop offset="0.822917" stop-color="#9226C5"/>
</linearGradient>
<linearGradient id="paint1_linear" x1="30.5" y1="11" x2="30.5" y2="48" gradientUnits="userSpaceOnUse">
<stop offset="0.223958" stop-color="#4374ED"/>
<stop offset="0.822917" stop-color="#9226C5"/>
</linearGradient>
</defs>
</svg>
